<svg width="421" height="276" viewBox="0 0 421 276" fill="none" xmlns="http://www.w3.org/2000/svg">
<g opacity="0.4" clip-path="url(#clip0_40_319)">
<path d="M393.192 292.544C393.192 292.544 331.812 264.265 353.375 244.654C374.938 225.044 393.192 292.544 393.192 292.544Z" fill="#E6E6E6"/>
<path d="M392.124 299.142C392.124 299.142 363.911 206.371 405.455 210.808C446.999 215.245 392.124 299.142 392.124 299.142Z" fill="#E6E6E6"/>
<path d="M286.061 148.553C286.917 147.961 287.59 147.141 288.004 146.185C288.418 145.23 288.556 144.177 288.403 143.147C288.249 142.117 287.811 141.151 287.136 140.357C286.462 139.564 285.579 138.976 284.588 138.659L271.809 134.581L264.788 140.67L280.288 148.892C281.189 149.37 282.204 149.591 283.222 149.531C284.24 149.472 285.222 149.133 286.061 148.553Z" fill="#FFB9B9"/>
<path d="M264.572 144.647L272.996 134.871L241.628 100.512L227.185 66.9999C226.233 64.7917 224.539 62.9868 222.397 61.8982C220.254 60.8097 217.798 60.5063 215.455 61.0407C213.923 61.3902 212.491 62.0864 211.27 63.076C210.049 64.0655 209.07 65.322 208.409 66.7489C207.748 68.1759 207.423 69.7354 207.459 71.3078C207.494 72.8801 207.889 74.4234 208.613 75.8193L227.463 112.158L264.572 144.647Z" fill="#E6E6E6"/>
<path d="M284.697 274.144L283.083 271.636H280.101V270.542H283.678L285.617 273.551L284.697 274.144Z" fill="#3F3D56"/>
<path d="M278.007 271.636H271.723V270.542H278.007V271.636ZM269.629 271.636H263.345V270.542H269.629V271.636ZM261.251 271.636H254.967V270.542H261.251L261.251 271.636ZM252.872 271.636H246.589V270.542H252.872V271.636ZM244.494 271.636H238.211V270.542H244.494V271.636ZM236.116 271.636L230.294 271.631L229.765 271.561L229.909 270.477L230.403 270.542H236.116V271.636ZM227.689 271.285L221.459 270.457L221.604 269.372L227.833 270.2L227.689 271.285ZM219.383 270.181L213.154 269.352L213.298 268.268L219.527 269.096L219.383 270.181ZM211.078 269.076L204.849 268.248L204.993 267.164L211.222 267.992L211.078 269.076ZM202.773 267.972L196.544 267.143L196.688 266.059L202.917 266.888L202.773 267.972Z" fill="#3F3D56"/>
<path d="M191.741 269.189L190.649 269.158L190.76 265.27L194.612 265.783L194.467 266.867L191.818 266.515L191.741 269.189Z" fill="#3F3D56"/>
<path d="M190.905 298.476L189.813 298.445L190.022 291.123L191.114 291.154L190.905 298.476ZM191.184 288.713L190.092 288.682L190.301 281.361L191.393 281.392L191.184 288.713ZM191.463 278.951L190.37 278.92L190.579 271.598L191.672 271.629L191.463 278.951Z" fill="#3F3D56"/>
<path d="M295.628 291.119L291.529 284.754L292.448 284.161L296.547 290.526L295.628 291.119ZM290.163 282.632L286.064 276.266L286.983 275.673L291.082 282.039L290.163 282.632Z" fill="#3F3D56"/>
<path d="M275.456 320.044C295.981 320.044 312.62 303.391 312.62 282.849C312.62 262.307 295.981 245.655 275.456 245.655C254.93 245.655 238.291 262.307 238.291 282.849C238.291 303.391 254.93 320.044 275.456 320.044Z" fill="#450A0A"/>
<path d="M306.062 326.06L251.681 229.519L239.657 241.553L293.218 325.787L306.062 326.06Z" fill="#3F3D56"/>
<path d="M141.28 323.599L263.432 199.709L273.543 219.673L157.677 329.069L141.28 323.599Z" fill="#3F3D56"/>
<path d="M191.015 310.472C204.599 310.472 215.61 299.452 215.61 285.858C215.61 272.264 204.599 261.244 191.015 261.244C177.432 261.244 166.421 272.264 166.421 285.858C166.421 299.452 177.432 310.472 191.015 310.472Z" fill="#3F3D56"/>
<path d="M189.649 231.98C189.504 231.981 189.365 232.038 189.263 232.141C189.16 232.243 189.103 232.382 189.103 232.527V236.903C189.103 237.048 189.16 237.187 189.263 237.29C189.365 237.392 189.504 237.45 189.649 237.45H203.313C203.458 237.45 203.596 237.392 203.699 237.29C203.801 237.187 203.859 237.048 203.859 236.903V232.527C203.859 232.382 203.801 232.243 203.699 232.141C203.596 232.038 203.458 231.981 203.313 231.98H189.649Z" fill="#450A0A"/>
<path d="M256.054 222.955H241.844V212.016L247.309 209.828L256.054 216.392V222.955Z" fill="#3F3D56"/>
<path d="M243.642 207.057L242.16 207.759L244.964 213.692L246.446 212.991L243.642 207.057Z" fill="#3F3D56"/>
<path d="M245.213 199.958C245.109 199.958 245.007 199.988 244.919 200.045L235.265 206.259C235.144 206.337 235.058 206.461 235.027 206.603C234.997 206.744 235.023 206.892 235.102 207.014L237.467 210.695C237.545 210.817 237.669 210.902 237.81 210.933C237.952 210.964 238.1 210.937 238.222 210.859L247.875 204.645C247.997 204.567 248.083 204.443 248.113 204.302C248.144 204.16 248.117 204.012 248.039 203.89L245.674 200.209C245.635 200.149 245.585 200.097 245.526 200.056C245.467 200.015 245.401 199.986 245.331 199.971C245.292 199.962 245.253 199.958 245.213 199.958Z" fill="#450A0A"/>
<path d="M266.984 221.861L255.78 167.437L268.897 165.249L277.841 209.092C278.225 210.682 278.228 212.34 277.85 213.93C277.472 215.521 276.722 217 275.663 218.245C274.605 219.491 273.266 220.467 271.758 221.096C270.249 221.724 268.614 221.987 266.984 221.861Z" fill="#3F3D56"/>
<path d="M308.265 156.714L295.29 155.786C295.116 155.774 294.948 155.72 294.8 155.63C294.651 155.539 294.526 155.415 294.435 155.266C294.345 155.118 294.29 154.95 294.277 154.776C294.265 154.603 294.293 154.429 294.361 154.268L313.209 109.73C313.28 109.562 313.392 109.415 313.534 109.302C313.676 109.188 313.844 109.112 314.023 109.08L326.822 106.793C327.013 106.758 327.21 106.776 327.393 106.843C327.575 106.91 327.736 107.025 327.859 107.175C327.982 107.326 328.063 107.506 328.094 107.698C328.124 107.89 328.103 108.087 328.032 108.268L309.361 156.021C309.276 156.238 309.124 156.423 308.927 156.547C308.73 156.672 308.498 156.73 308.265 156.714Z" fill="#3F3D56"/>
<path d="M297.044 152.395L307.428 153.489L324.371 110.825L313.44 112.466L297.044 152.395Z" fill="#450A0A"/>
<path d="M183.91 269.448L170.247 283.123L150.572 197.247L161.502 198.888L183.91 269.448Z" fill="#3F3D56"/>
<path d="M167.987 198.758L165.627 198.05C160.99 200.096 155.945 201.046 150.882 200.827C149.789 200.781 148.755 200.313 148 199.52C147.245 198.728 146.826 197.673 146.832 196.578C146.832 195.45 147.28 194.368 148.077 193.57C148.873 192.773 149.954 192.325 151.081 192.325H171.695C172.253 192.325 172.789 192.546 173.183 192.941C173.578 193.336 173.799 193.872 173.799 194.43C173.799 195.135 173.635 195.829 173.319 196.459C173.003 197.088 172.544 197.635 171.98 198.055C171.415 198.476 170.76 198.758 170.067 198.88C169.374 199.002 168.662 198.961 167.987 198.758Z" fill="#3F3D56"/>
<path d="M298.557 145.054C298.029 145.053 297.516 145.227 297.096 145.547L280.317 158.389L261.535 160.84C258.301 161.263 256.061 164.783 255.78 167.984L277.89 164.911C280.961 164.615 283.863 163.368 286.194 161.345L300.132 149.281C300.503 148.96 300.768 148.533 300.89 148.057C301.012 147.581 300.985 147.079 300.814 146.619C300.642 146.159 300.334 145.762 299.931 145.482C299.527 145.203 299.048 145.053 298.557 145.054Z" fill="#3F3D56"/>
<path d="M290.359 136.849C289.831 136.849 289.318 137.022 288.898 137.342L272.119 150.184L253.336 152.636C250.103 153.058 247.863 156.579 247.582 159.779L269.692 156.707C272.763 156.41 275.665 155.164 277.996 153.14L291.934 141.076C292.305 140.755 292.57 140.328 292.692 139.852C292.814 139.376 292.787 138.875 292.616 138.414C292.444 137.954 292.136 137.558 291.733 137.278C291.329 136.998 290.85 136.849 290.359 136.849Z" fill="#3F3D56"/>
<path d="M300.597 169.898C296.689 169.89 292.839 168.965 289.354 167.196C285.869 165.427 282.847 162.865 280.532 159.715L282.735 158.098C284.502 160.514 286.741 162.546 289.315 164.072C291.889 165.598 294.746 166.586 297.712 166.976C300.679 167.366 303.693 167.15 306.574 166.342C309.455 165.533 312.142 164.148 314.473 162.271C316.804 160.394 318.73 158.063 320.136 155.42C321.542 152.777 322.398 149.876 322.652 146.892C322.906 143.909 322.553 140.905 321.614 138.062C320.676 135.219 319.171 132.595 317.191 130.35L319.239 128.54C322.407 132.131 324.472 136.561 325.186 141.298C325.9 146.035 325.233 150.878 323.265 155.245C321.296 159.611 318.11 163.317 314.089 165.916C310.069 168.516 305.384 169.898 300.597 169.898Z" fill="#3F3D56"/>
<path d="M272.312 162.624C273.278 162.238 274.117 161.587 274.732 160.748C275.348 159.908 275.717 158.913 275.796 157.874C275.875 156.836 275.662 155.796 275.18 154.873C274.699 153.949 273.969 153.18 273.072 152.65L261.519 145.832L253.321 150.207L266.608 161.671C267.381 162.337 268.321 162.779 269.327 162.947C270.332 163.115 271.365 163.003 272.312 162.624Z" fill="#FFB9B9"/>
<path d="M181.724 210.922L189.376 215.298L236.623 180.493C238.355 179.308 239.824 177.777 240.938 175.997C242.051 174.217 242.785 172.225 243.092 170.148C243.476 167.521 243.17 164.84 242.204 162.368C241.238 159.895 239.645 157.718 237.582 156.049C227.148 147.567 214.253 139.874 200.58 132.431L180.358 142.276C188.692 159.378 197.943 173.478 211.511 173.454L181.724 210.922Z" fill="#450A0A"/>
<path d="M178.389 222.064C184.737 228.5 193.097 233.106 202.434 236.821C203.138 237.1 203.911 237.154 204.647 236.975C205.382 236.796 206.044 236.393 206.542 235.822C207.146 235.129 207.467 234.234 207.442 233.315C207.417 232.395 207.047 231.519 206.406 230.86L200.353 224.642L196.696 211.606C188.843 215.491 183.694 214.622 182.679 206.483L177.729 213.238C176.772 214.548 176.313 216.155 176.434 217.773C176.555 219.39 177.248 220.912 178.389 222.064Z" fill="#2F2E41"/>
<path d="M157.13 279.841L168.607 280.388L194.841 145.285L149.752 130.79C145.25 147.634 151.934 175.206 163.689 207.64L157.13 279.841Z" fill="#450A0A"/>
<path d="M245.396 56.9478C255.357 56.9478 263.432 48.8664 263.432 38.8975C263.432 28.9287 255.357 20.8473 245.396 20.8473C235.435 20.8473 227.36 28.9287 227.36 38.8975C227.36 48.8664 235.435 56.9478 245.396 56.9478Z" fill="#FFB9B9"/>
<path d="M212.331 61.0501L223.808 69.2547L241.297 51.7515L232.552 40.8119L212.331 61.0501Z" fill="#FFB9B9"/>
<path d="M147.839 132.157C161.993 143.701 177.45 151.289 196.481 148.019C202.232 138.818 206.478 119.435 213.697 111.098C229.462 92.8932 237.281 76.6662 232.279 61.8706C227.417 58.6893 227.631 58.6946 224.081 48.1961C196.275 53.3446 169.356 84.7588 147.839 132.157Z" fill="#E6E6E6"/>
<path d="M156.946 291.098C165.116 294.964 174.547 296.42 184.591 296.704C185.348 296.724 186.092 296.509 186.722 296.089C187.352 295.668 187.836 295.063 188.107 294.355C188.437 293.497 188.432 292.546 188.093 291.691C187.754 290.836 187.106 290.14 186.278 289.741L178.461 285.978L170.558 274.99C164.513 281.335 159.379 282.286 155.635 274.99L153.301 283.035C152.851 284.593 152.971 286.261 153.639 287.738C154.307 289.216 155.48 290.407 156.946 291.098Z" fill="#2F2E41"/>
<path d="M252.228 154.036L262.612 146.379L239.658 105.902L233.017 70.016C232.58 67.6514 231.329 65.5148 229.481 63.9769C227.634 62.4391 225.307 61.5971 222.904 61.5971C221.333 61.5971 219.782 61.9575 218.372 62.6506C216.961 63.3437 215.728 64.3511 214.767 65.5955C213.806 66.8398 213.142 68.288 212.828 69.8289C212.513 71.3698 212.555 72.9623 212.951 74.4843L223.261 114.107L252.228 154.036Z" fill="#E6E6E6"/>
<path d="M200.033 236.903H194.021V269.722H200.033V236.903Z" fill="#3F3D56"/>
<path d="M259.672 33.6625C260.378 34.5095 261.283 35.1673 262.307 35.5767C263.331 35.986 264.44 36.1339 265.535 36.0071C267.706 35.6684 269.638 33.815 269.777 31.6204C269.897 29.7253 268.784 27.9871 267.616 26.4906C265.039 23.1906 261.978 20.2992 258.538 17.9142C256.898 16.7776 255.088 15.7313 253.096 15.6087C252.111 15.5481 251.123 15.7181 250.137 15.6757C248.323 15.5977 246.624 14.8123 244.855 14.4055C243.038 14.0005 241.156 13.9907 239.335 14.3768C237.514 14.7629 235.798 15.5359 234.302 16.6434C233.304 17.4064 232.401 18.2868 231.614 19.2656C229.435 21.9322 227.974 25.1121 227.369 28.503C226.418 33.878 227.605 39.7731 225.025 44.582C228.053 44.299 230.481 41.9881 233.358 41.0003C235.492 40.275 237.81 40.2957 239.931 41.059C240.478 41.3393 241.094 41.4546 241.705 41.3909C242.209 41.2127 242.65 40.8899 242.973 40.4628L248.474 34.4722C249.594 33.253 250.866 31.9541 252.511 31.7853C253.494 31.7513 254.471 31.9453 255.367 32.3521C257.572 33.1868 259.706 34.2014 261.746 35.3857" fill="#2F2E41"/>
<path d="M249.222 158.685L247.582 159.779L258.513 170.719L265.072 164.702L254.141 155.951L249.222 158.685Z" fill="#3F3D56"/>
</g>
<defs>
<clipPath id="clip0_40_319">
<rect width="421" height="356" fill="white" transform="translate(0 -19)"/>
</clipPath>
</defs>
</svg>
