<svg width="314" height="129" viewBox="0 0 314 129" fill="none" xmlns="http://www.w3.org/2000/svg">
<g opacity="0.4" clip-path="url(#clip0_45_414)">
<path d="M289.597 184.854L309.277 157.415L289.637 187.806L289.678 190.893C288.242 190.904 286.819 190.881 285.41 190.826L286.386 151.138L286.36 150.831L286.396 150.772L286.489 147.022L264.938 117.685L286.464 144.215L286.54 145.008L287.277 115.021L268.663 84.6056L287.33 109.754L287.135 47.6301L287.136 47.4233L287.142 47.6266L288.378 96.5885L305.343 76.7002L288.433 100.806L288.804 127.628L304.415 101.451L288.861 131.572L289.067 146.486L311.77 110.022L289.136 151.689L289.597 184.854Z" fill="#E6E6E6"/>
<path d="M214.337 74.5939C214.337 74.5939 211.674 56.2874 207.237 61.2801C202.799 66.2728 207.237 73.7618 207.237 73.7618L210.787 77.9224L214.337 75.4261V74.5939Z" fill="#9F616A"/>
<path d="M224.987 80.4188C224.987 80.4188 216.112 71.2655 214.337 72.9297C212.562 74.594 207.237 75.4261 208.124 78.7545C209.012 82.083 227.65 92.9005 227.65 92.9005L224.987 80.4188Z" fill="#450A0A"/>
<path opacity="0.1" d="M224.987 80.4188C224.987 80.4188 216.112 71.2655 214.337 72.9297C212.562 74.594 207.237 75.4261 208.124 78.7545C209.012 82.083 227.65 92.9005 227.65 92.9005L224.987 80.4188Z" fill="black"/>
<path d="M275.575 79.5867V86.2436C275.575 86.2436 276.463 101.222 271.138 100.39C265.812 99.5574 268.475 87.0757 268.475 87.0757L269.363 79.5867L275.575 79.5867Z" fill="#9F616A"/>
<path d="M272.913 127.849C272.913 127.849 280.9 139.499 283.563 140.331C286.225 141.163 300.425 148.652 302.2 156.141L314.626 171.119L308.413 178.609C308.413 178.609 280.013 150.317 272.025 147.82C264.037 145.324 256.05 132.842 256.05 132.842L272.913 127.849Z" fill="#9F616A"/>
<path d="M209.899 108.711C209.899 108.711 193.037 111.207 195.699 121.192C198.362 131.178 224.1 151.981 224.1 151.981L224.987 156.973L234.75 158.638L239.187 154.477L238.3 151.981C238.3 151.981 227.65 142.827 226.762 139.499C225.875 136.171 216.112 122.857 211.674 122.025L217.887 118.696L209.899 108.711Z" fill="#9F616A"/>
<path d="M253.387 90.4042C253.387 90.4042 265.812 92.0684 264.925 108.711C264.925 108.711 280.9 123.689 276.463 128.682C272.025 133.674 262.262 142.827 258.712 140.331C255.162 137.835 244.512 118.696 244.512 118.696C244.512 118.696 219.662 127.017 215.224 122.857C210.787 118.696 206.349 108.711 206.349 108.711L228.537 97.8932L253.387 90.4042Z" fill="#2F2E41"/>
<path d="M218.774 42.9735C224.656 42.9735 229.425 38.5029 229.425 32.9881C229.425 27.4734 224.656 23.0027 218.774 23.0027C212.893 23.0027 208.124 27.4734 208.124 32.9881C208.124 38.5029 212.893 42.9735 218.774 42.9735Z" fill="#9F616A"/>
<path d="M226.762 33.8203C226.762 33.8203 232.975 42.9735 234.75 43.8057C236.525 44.6378 222.324 52.9589 222.324 52.9589C222.324 52.9589 222.324 42.1414 217.887 39.6451L226.762 33.8203Z" fill="#9F616A"/>
<path d="M227.65 42.9735C227.65 42.9735 241.85 38.813 244.512 45.4699C247.175 52.1268 253.387 64.6086 252.5 72.9297C251.612 81.2509 249.837 79.5867 252.5 82.083C255.162 84.5794 256.937 82.9151 256.05 86.2436C255.162 89.5721 254.275 89.572 255.162 91.2363C256.05 92.9005 244.512 98.7253 234.75 99.5574L224.987 100.39C224.987 100.39 224.987 85.4115 223.212 82.083C221.437 78.7545 217.887 72.0976 217.887 69.6013V62.9961C217.887 58.5998 219.111 54.2797 221.437 50.4626C221.437 50.4626 226.762 42.9735 227.65 42.9735Z" fill="#450A0A"/>
<path d="M238.3 46.302C238.3 46.302 271.138 48.7984 274.688 57.1195C278.238 65.4407 280.013 82.083 276.463 82.083C272.913 82.083 268.475 83.7472 267.588 82.083C266.7 80.4188 263.15 63.7765 262.262 63.7765C261.375 63.7765 234.75 61.2801 234.75 61.2801C234.75 61.2801 223.212 47.9663 238.3 46.302Z" fill="#450A0A"/>
<path d="M218.347 30.5126C218.347 30.5126 215.52 25.9077 211.988 29.9075C208.455 33.9073 202.708 26.557 203.59 24.9886C204.472 23.4202 207.588 25.0591 212.927 23.4226C218.266 21.7862 228.551 18.4524 230.274 29.3273C231.996 40.2023 227.894 39.0622 227.894 39.0622C227.894 39.0622 226.014 29.4258 224.314 32.1938L222.615 34.9618L221.14 35.302L218.347 30.5126Z" fill="#2F2E41"/>
</g>
<defs>
<clipPath id="clip0_45_414">
<rect width="378" height="230" fill="white" transform="translate(0 -33)"/>
</clipPath>
</defs>
</svg>
