<svg width="50" height="52" viewBox="0 0 50 52" fill="none" xmlns="http://www.w3.org/2000/svg">
<path d="M25.0078 15.4204C26.5287 15.4204 28.0154 14.9694 29.2799 14.1244C30.5445 13.2795 31.5301 12.0785 32.1121 10.6734C32.6941 9.2683 32.8464 7.72216 32.5497 6.2305C32.253 4.73885 31.5206 3.36867 30.4452 2.29325C29.3698 1.21783 27.9996 0.485453 26.508 0.188744C25.0163 -0.107965 23.4702 0.0443169 22.0651 0.626332C20.6599 1.20835 19.459 2.19395 18.614 3.45852C17.7691 4.72308 17.3181 6.20981 17.3181 7.73069C17.3181 9.77012 18.1282 11.726 19.5703 13.1681C21.0124 14.6102 22.9683 15.4204 25.0078 15.4204ZM25.0078 3.88584C25.7682 3.88584 26.5116 4.11133 27.1439 4.53381C27.7761 4.95629 28.2689 5.55677 28.56 6.25933C28.851 6.96188 28.9271 7.73495 28.7787 8.48078C28.6304 9.22661 28.2642 9.9117 27.7265 10.4494C27.1888 10.9871 26.5037 11.3533 25.7579 11.5017C25.012 11.65 24.239 11.5739 23.5364 11.2829C22.8339 10.9919 22.2334 10.4991 21.8109 9.86677C21.3884 9.23449 21.1629 8.49113 21.1629 7.73069C21.1629 6.71097 21.568 5.73302 22.2891 5.01197C23.0101 4.29092 23.9881 3.88584 25.0078 3.88584ZM49.7254 27.945C49.5954 28.1622 49.4238 28.3515 49.2205 28.5022C49.0171 28.6529 48.786 28.762 48.5404 28.8232C48.2948 28.8844 48.0396 28.8964 47.7893 28.8587C47.539 28.821 47.2987 28.7343 47.082 28.6034C46.9979 28.553 38.645 23.6556 26.9254 23.1557V32.0013L41.8242 48.7576C41.9918 48.947 42.1204 49.1675 42.2027 49.4065C42.2851 49.6456 42.3196 49.8985 42.3042 50.1509C42.2888 50.4033 42.2238 50.6501 42.113 50.8774C42.0022 51.1047 41.8477 51.3079 41.6584 51.4755C41.469 51.643 41.2485 51.7717 41.0095 51.854C40.7704 51.9364 40.5175 51.9708 40.2651 51.9554C40.0128 51.94 39.7659 51.8751 39.5386 51.7643C39.3113 51.6535 39.1081 51.499 38.9405 51.3097L25.0078 35.6059L11.0702 51.3C10.9026 51.4894 10.6994 51.6439 10.4721 51.7547C10.2449 51.8655 9.998 51.9304 9.74562 51.9458C9.49325 51.9612 9.24031 51.9268 9.00126 51.8444C8.7622 51.7621 8.54171 51.6334 8.35237 51.4659C8.16303 51.2983 8.00854 51.0951 7.89774 50.8678C7.78693 50.6405 7.72198 50.3937 7.70658 50.1413C7.69119 49.8889 7.72565 49.636 7.808 49.3969C7.89036 49.1579 8.01899 48.9374 8.18656 48.748L23.0854 32.0013V23.1533C11.3105 23.6532 3.01524 28.5506 2.92873 28.6034C2.71216 28.7365 2.47136 28.8252 2.22026 28.8646C1.96916 28.904 1.71275 28.8932 1.46585 28.8328C1.21895 28.7725 0.986476 28.6637 0.781872 28.5129C0.577268 28.3621 0.404599 28.1723 0.273853 27.9543C0.143107 27.7363 0.0568818 27.4946 0.0201648 27.2431C-0.0165522 26.9916 -0.00303176 26.7353 0.0599443 26.4891C0.12292 26.2428 0.234101 26.0115 0.387055 25.8085C0.540009 25.6055 0.731698 25.4349 0.951033 25.3065C1.36195 25.0589 11.1783 19.2652 25.0078 19.2652C38.8372 19.2652 48.6536 25.0589 49.0669 25.3065C49.2835 25.4364 49.4723 25.6078 49.6225 25.8107C49.7728 26.0137 49.8817 26.2443 49.9428 26.4893C50.0039 26.7343 50.0162 26.989 49.9789 27.2388C49.9416 27.4886 49.8554 27.7285 49.7254 27.945Z" fill="#EF4444"/>
</svg>
