<svg width="60" height="60" viewBox="0 0 60 60" fill="none" xmlns="http://www.w3.org/2000/svg">
<path d="M35.625 20.625C37.1084 20.625 38.5584 20.1851 39.7918 19.361C41.0252 18.5369 41.9864 17.3656 42.5541 15.9951C43.1218 14.6247 43.2703 13.1167 42.9809 11.6618C42.6915 10.207 41.9772 8.87059 40.9283 7.8217C39.8794 6.7728 38.543 6.0585 37.0882 5.76911C35.6333 5.47972 34.1253 5.62825 32.7549 6.1959C31.3844 6.76356 30.2131 7.72485 29.389 8.95822C28.5649 10.1916 28.125 11.6416 28.125 13.125C28.125 15.1141 28.9152 17.0218 30.3217 18.4283C31.7282 19.8348 33.6359 20.625 35.625 20.625ZM35.625 9.375C36.3667 9.375 37.0917 9.59493 37.7084 10.007C38.3251 10.419 38.8057 11.0047 39.0896 11.6899C39.3734 12.3752 39.4476 13.1292 39.303 13.8566C39.1583 14.584 38.8011 15.2522 38.2767 15.7767C37.7522 16.3011 37.084 16.6583 36.3566 16.8029C35.6292 16.9476 34.8752 16.8734 34.1899 16.5895C33.5047 16.3057 32.919 15.8251 32.507 15.2084C32.0949 14.5917 31.875 13.8667 31.875 13.125C31.875 12.1304 32.2701 11.1766 32.9734 10.4733C33.6766 9.77009 34.6304 9.375 35.625 9.375ZM51.4008 32.9719C51.2578 33.0375 49.6453 33.7406 46.7906 33.7406C43.5445 33.7406 38.693 32.8313 32.5664 29.0531C31.6339 31.7003 30.4233 34.2411 28.9547 36.6328C31.5924 37.4448 34.0736 38.6977 36.293 40.3383C40.7625 43.7461 43.125 48.5977 43.125 54.375C43.125 54.8723 42.9275 55.3492 42.5758 55.7008C42.2242 56.0525 41.7473 56.25 41.25 56.25C40.7527 56.25 40.2758 56.0525 39.9242 55.7008C39.5725 55.3492 39.375 54.8723 39.375 54.375C39.375 44.6016 31.2445 41.0836 26.6859 39.8789C26.557 40.043 26.4234 40.2094 26.2898 40.3711C21.6867 45.9492 15.9188 48.8508 9.50157 48.8508C8.77064 48.8542 8.04002 48.8206 7.3125 48.75C6.81522 48.7003 6.35806 48.455 6.0416 48.0682C5.72513 47.6815 5.57528 47.1848 5.625 46.6875C5.67473 46.1902 5.91997 45.7331 6.30676 45.4166C6.69355 45.1001 7.19022 44.9503 7.6875 45C13.7625 45.6047 19.0477 43.2445 23.3906 37.9688C26.318 34.4203 28.3125 30.0914 29.3086 26.9531C20.1867 21.6445 14.3602 26.1633 14.2969 26.2125C14.1059 26.3756 13.8841 26.4987 13.6446 26.5744C13.4051 26.6501 13.1529 26.6769 12.9028 26.6533C12.6528 26.6296 12.4101 26.556 12.189 26.4368C11.968 26.3175 11.7732 26.1551 11.6161 25.9591C11.4591 25.7631 11.343 25.5375 11.2748 25.2958C11.2066 25.0541 11.1876 24.8011 11.2191 24.5519C11.2505 24.3027 11.3317 24.0624 11.4578 23.8452C11.5839 23.628 11.7523 23.4384 11.9531 23.2875C12.3047 23.0063 20.6766 16.4906 32.932 24.8273C43.5891 32.0719 49.7906 29.5875 49.8492 29.5594C50.0739 29.4533 50.3173 29.3929 50.5655 29.3817C50.8137 29.3705 51.0616 29.4088 51.2949 29.4942C51.5281 29.5797 51.7421 29.7106 51.9243 29.8795C52.1065 30.0483 52.2534 30.2517 52.3563 30.4778C52.4593 30.7039 52.5163 30.9482 52.524 31.1965C52.5317 31.4448 52.49 31.6921 52.4014 31.9242C52.3127 32.1562 52.1788 32.3684 52.0074 32.5482C51.836 32.7281 51.6306 32.8721 51.4031 32.9719H51.4008Z" fill="#EF4444"/>
</svg>
