<svg width="60" height="60" viewBox="0 0 60 60" fill="none" xmlns="http://www.w3.org/2000/svg">
<path d="M50.0766 19.2984L36.9516 6.17344C36.7773 5.99937 36.5705 5.86135 36.3428 5.76724C36.1152 5.67314 35.8713 5.62481 35.625 5.625H13.125C12.1304 5.625 11.1766 6.02009 10.4733 6.72335C9.77009 7.42661 9.375 8.38044 9.375 9.375V50.625C9.375 51.6196 9.77009 52.5734 10.4733 53.2766C11.1766 53.9799 12.1304 54.375 13.125 54.375H46.875C47.8696 54.375 48.8234 53.9799 49.5266 53.2766C50.2299 52.5734 50.625 51.6196 50.625 50.625V20.625C50.6252 20.3787 50.5769 20.1348 50.4828 19.9072C50.3887 19.6795 50.2506 19.4727 50.0766 19.2984ZM37.5 12.0258L44.2242 18.75H37.5V12.0258ZM46.875 50.625H13.125V9.375H33.75V20.625C33.75 21.1223 33.9475 21.5992 34.2992 21.9508C34.6508 22.3025 35.1277 22.5 35.625 22.5H46.875V50.625ZM37.5 35.625C37.5 36.1223 37.3025 36.5992 36.9508 36.9508C36.5992 37.3025 36.1223 37.5 35.625 37.5H31.875V41.25C31.875 41.7473 31.6775 42.2242 31.3258 42.5758C30.9742 42.9275 30.4973 43.125 30 43.125C29.5027 43.125 29.0258 42.9275 28.6742 42.5758C28.3225 42.2242 28.125 41.7473 28.125 41.25V37.5H24.375C23.8777 37.5 23.4008 37.3025 23.0492 36.9508C22.6975 36.5992 22.5 36.1223 22.5 35.625C22.5 35.1277 22.6975 34.6508 23.0492 34.2992C23.4008 33.9475 23.8777 33.75 24.375 33.75H28.125V30C28.125 29.5027 28.3225 29.0258 28.6742 28.6742C29.0258 28.3225 29.5027 28.125 30 28.125C30.4973 28.125 30.9742 28.3225 31.3258 28.6742C31.6775 29.0258 31.875 29.5027 31.875 30V33.75H35.625C36.1223 33.75 36.5992 33.9475 36.9508 34.2992C37.3025 34.6508 37.5 35.1277 37.5 35.625Z" fill="#EF4444"/>
</svg>
