<svg width="60" height="60" viewBox="0 0 60 60" fill="none" xmlns="http://www.w3.org/2000/svg">
<path d="M16.875 24.375C16.875 23.8777 17.0725 23.4008 17.4242 23.0492C17.7758 22.6975 18.2527 22.5 18.75 22.5H41.25C41.7473 22.5 42.2242 22.6975 42.5758 23.0492C42.9275 23.4008 43.125 23.8777 43.125 24.375C43.125 24.8723 42.9275 25.3492 42.5758 25.7008C42.2242 26.0525 41.7473 26.25 41.25 26.25H18.75C18.2527 26.25 17.7758 26.0525 17.4242 25.7008C17.0725 25.3492 16.875 24.8723 16.875 24.375ZM18.75 33.75H41.25C41.7473 33.75 42.2242 33.5525 42.5758 33.2008C42.9275 32.8492 43.125 32.3723 43.125 31.875C43.125 31.3777 42.9275 30.9008 42.5758 30.5492C42.2242 30.1975 41.7473 30 41.25 30H18.75C18.2527 30 17.7758 30.1975 17.4242 30.5492C17.0725 30.9008 16.875 31.3777 16.875 31.875C16.875 32.3723 17.0725 32.8492 17.4242 33.2008C17.7758 33.5525 18.2527 33.75 18.75 33.75ZM54.375 13.125V48.75C54.3748 49.0696 54.293 49.3838 54.1372 49.6628C53.9815 49.9419 53.757 50.1765 53.4851 50.3444C53.2132 50.5123 52.9028 50.6079 52.5836 50.6221C52.2643 50.6364 51.9467 50.5688 51.6609 50.4258L45 47.0953L38.3391 50.4258C38.0786 50.5561 37.7913 50.624 37.5 50.624C37.2087 50.624 36.9214 50.5561 36.6609 50.4258L30 47.0953L23.3391 50.4258C23.0786 50.5561 22.7913 50.624 22.5 50.624C22.2087 50.624 21.9214 50.5561 21.6609 50.4258L15 47.0953L8.33906 50.4258C8.05327 50.5688 7.73568 50.6364 7.41642 50.6221C7.09717 50.6079 6.78685 50.5123 6.51494 50.3444C6.24302 50.1765 6.01853 49.9419 5.86277 49.6628C5.70702 49.3838 5.62517 49.0696 5.625 48.75V13.125C5.625 12.1304 6.02009 11.1766 6.72335 10.4733C7.42661 9.77009 8.38044 9.375 9.375 9.375H50.625C51.6196 9.375 52.5734 9.77009 53.2766 10.4733C53.9799 11.1766 54.375 12.1304 54.375 13.125ZM50.625 13.125H9.375V45.7172L14.1609 43.3219C14.4214 43.1915 14.7087 43.1237 15 43.1237C15.2913 43.1237 15.5786 43.1915 15.8391 43.3219L22.5 46.6547L29.1609 43.3219C29.4214 43.1915 29.7087 43.1237 30 43.1237C30.2913 43.1237 30.5786 43.1915 30.8391 43.3219L37.5 46.6547L44.1609 43.3219C44.4214 43.1915 44.7087 43.1237 45 43.1237C45.2913 43.1237 45.5786 43.1915 45.8391 43.3219L50.625 45.7172V13.125Z" fill="#EF4444"/>
</svg>
