<svg width="60" height="60" viewBox="0 0 60 60" fill="none" xmlns="http://www.w3.org/2000/svg">
<path d="M35.625 28.125H31.875V13.125H33.75C35.7391 13.125 37.6468 13.9152 39.0533 15.3217C40.4598 16.7282 41.25 18.6359 41.25 20.625C41.25 21.1223 41.4475 21.5992 41.7992 21.9508C42.1508 22.3025 42.6277 22.5 43.125 22.5C43.6223 22.5 44.0992 22.3025 44.4508 21.9508C44.8025 21.5992 45 21.1223 45 20.625C44.9969 17.6423 43.8106 14.7826 41.7015 12.6735C39.5924 10.5644 36.7327 9.3781 33.75 9.375H31.875V5.625C31.875 5.12772 31.6775 4.65081 31.3258 4.29917C30.9742 3.94754 30.4973 3.75 30 3.75C29.5027 3.75 29.0258 3.94754 28.6742 4.29917C28.3225 4.65081 28.125 5.12772 28.125 5.625V9.375H26.25C23.2663 9.375 20.4048 10.5603 18.295 12.67C16.1853 14.7798 15 17.6413 15 20.625C15 23.6087 16.1853 26.4702 18.295 28.58C20.4048 30.6897 23.2663 31.875 26.25 31.875H28.125V46.875H24.375C22.3859 46.875 20.4782 46.0848 19.0717 44.6783C17.6652 43.2718 16.875 41.3641 16.875 39.375C16.875 38.8777 16.6775 38.4008 16.3258 38.0492C15.9742 37.6975 15.4973 37.5 15 37.5C14.5027 37.5 14.0258 37.6975 13.6742 38.0492C13.3225 38.4008 13.125 38.8777 13.125 39.375C13.1281 42.3577 14.3144 45.2174 16.4235 47.3265C18.5326 49.4356 21.3923 50.6219 24.375 50.625H28.125V54.375C28.125 54.8723 28.3225 55.3492 28.6742 55.7008C29.0258 56.0525 29.5027 56.25 30 56.25C30.4973 56.25 30.9742 56.0525 31.3258 55.7008C31.6775 55.3492 31.875 54.8723 31.875 54.375V50.625H35.625C38.6087 50.625 41.4702 49.4397 43.58 47.33C45.6897 45.2202 46.875 42.3587 46.875 39.375C46.875 36.3913 45.6897 33.5298 43.58 31.42C41.4702 29.3103 38.6087 28.125 35.625 28.125ZM26.25 28.125C24.2609 28.125 22.3532 27.3348 20.9467 25.9283C19.5402 24.5218 18.75 22.6141 18.75 20.625C18.75 18.6359 19.5402 16.7282 20.9467 15.3217C22.3532 13.9152 24.2609 13.125 26.25 13.125H28.125V28.125H26.25ZM35.625 46.875H31.875V31.875H35.625C37.6141 31.875 39.5218 32.6652 40.9283 34.0717C42.3348 35.4782 43.125 37.3859 43.125 39.375C43.125 41.3641 42.3348 43.2718 40.9283 44.6783C39.5218 46.0848 37.6141 46.875 35.625 46.875Z" fill="#EF4444"/>
</svg>
