<svg width="60" height="60" viewBox="0 0 60 60" fill="none" xmlns="http://www.w3.org/2000/svg">
<path d="M48.75 7.5H43.125V5.625C43.125 5.12772 42.9275 4.65081 42.5758 4.29917C42.2242 3.94754 41.7473 3.75 41.25 3.75C40.7527 3.75 40.2758 3.94754 39.9242 4.29917C39.5725 4.65081 39.375 5.12772 39.375 5.625V7.5H20.625V5.625C20.625 5.12772 20.4275 4.65081 20.0758 4.29917C19.7242 3.94754 19.2473 3.75 18.75 3.75C18.2527 3.75 17.7758 3.94754 17.4242 4.29917C17.0725 4.65081 16.875 5.12772 16.875 5.625V7.5H11.25C10.2554 7.5 9.30161 7.89509 8.59835 8.59835C7.89509 9.30161 7.5 10.2554 7.5 11.25V48.75C7.5 49.7446 7.89509 50.6984 8.59835 51.4016C9.30161 52.1049 10.2554 52.5 11.25 52.5H48.75C49.7446 52.5 50.6984 52.1049 51.4016 51.4016C52.1049 50.6984 52.5 49.7446 52.5 48.75V11.25C52.5 10.2554 52.1049 9.30161 51.4016 8.59835C50.6984 7.89509 49.7446 7.5 48.75 7.5ZM16.875 11.25V13.125C16.875 13.6223 17.0725 14.0992 17.4242 14.4508C17.7758 14.8025 18.2527 15 18.75 15C19.2473 15 19.7242 14.8025 20.0758 14.4508C20.4275 14.0992 20.625 13.6223 20.625 13.125V11.25H39.375V13.125C39.375 13.6223 39.5725 14.0992 39.9242 14.4508C40.2758 14.8025 40.7527 15 41.25 15C41.7473 15 42.2242 14.8025 42.5758 14.4508C42.9275 14.0992 43.125 13.6223 43.125 13.125V11.25H48.75V18.75H11.25V11.25H16.875ZM48.75 48.75H11.25V22.5H48.75V48.75ZM39.7641 28.6734C39.9384 28.8476 40.0767 29.0544 40.1711 29.282C40.2654 29.5096 40.314 29.7536 40.314 30C40.314 30.2464 40.2654 30.4904 40.1711 30.718C40.0767 30.9456 39.9384 31.1524 39.7641 31.3266L28.5141 42.5766C28.3399 42.7509 28.1331 42.8892 27.9055 42.9836C27.6779 43.0779 27.4339 43.1265 27.1875 43.1265C26.9411 43.1265 26.6971 43.0779 26.4695 42.9836C26.2419 42.8892 26.0351 42.7509 25.8609 42.5766L20.2359 36.9516C19.8841 36.5997 19.6865 36.1226 19.6865 35.625C19.6865 35.1274 19.8841 34.6503 20.2359 34.2984C20.5878 33.9466 21.0649 33.749 21.5625 33.749C22.0601 33.749 22.5372 33.9466 22.8891 34.2984L27.1875 38.5992L37.1109 28.6734C37.2851 28.4991 37.4919 28.3608 37.7195 28.2665C37.9471 28.1721 38.1911 28.1235 38.4375 28.1235C38.6839 28.1235 38.9279 28.1721 39.1555 28.2665C39.3831 28.3608 39.5899 28.4991 39.7641 28.6734Z" fill="#EF4444"/>
</svg>
