<svg width="60" height="60" viewBox="0 0 60 60" fill="none" xmlns="http://www.w3.org/2000/svg">
<path d="M39.375 13.125C39.375 12.6277 39.5725 12.1508 39.9242 11.7992C40.2758 11.4475 40.7527 11.25 41.25 11.25H45V7.5C45 7.00272 45.1975 6.52581 45.5492 6.17417C45.9008 5.82254 46.3777 5.625 46.875 5.625C47.3723 5.625 47.8492 5.82254 48.2008 6.17417C48.5525 6.52581 48.75 7.00272 48.75 7.5V11.25H52.5C52.9973 11.25 53.4742 11.4475 53.8258 11.7992C54.1775 12.1508 54.375 12.6277 54.375 13.125C54.375 13.6223 54.1775 14.0992 53.8258 14.4508C53.4742 14.8025 52.9973 15 52.5 15H48.75V18.75C48.75 19.2473 48.5525 19.7242 48.2008 20.0758C47.8492 20.4275 47.3723 20.625 46.875 20.625C46.3777 20.625 45.9008 20.4275 45.5492 20.0758C45.1975 19.7242 45 19.2473 45 18.75V15H41.25C40.7527 15 40.2758 14.8025 39.9242 14.4508C39.5725 14.0992 39.375 13.6223 39.375 13.125ZM54.0375 25.9406C54.8941 31.0326 54.1103 36.265 51.7993 40.8824C49.4882 45.4999 45.7696 49.2634 41.1802 51.6296C36.5908 53.9958 31.3681 54.8422 26.2663 54.0467C21.1644 53.2512 16.4474 50.8548 12.7963 47.2037C9.14515 43.5526 6.74882 38.8356 5.9533 33.7337C5.15778 28.6319 6.00423 23.4092 8.37043 18.8198C10.7366 14.2304 14.5001 10.5118 19.1176 8.20072C23.735 5.88969 28.9674 5.10589 34.0594 5.9625C34.5461 6.04857 34.9791 6.32335 35.2643 6.72706C35.5495 7.13076 35.6637 7.63074 35.5822 8.11824C35.5006 8.60573 35.2298 9.04131 34.8288 9.33021C34.4278 9.61911 33.9289 9.73797 33.4406 9.66094C30.4831 9.16342 27.4527 9.31635 24.5603 10.1091C21.6679 10.9018 18.983 12.3153 16.6925 14.2512C14.4019 16.187 12.5607 18.5988 11.297 21.3186C10.0332 24.0384 9.37737 27.0009 9.375 30C9.37056 35.0489 11.2262 39.9225 14.5875 43.6898C16.6787 40.6596 19.6191 38.3152 23.0391 36.9516C21.202 35.5046 19.8615 33.5212 19.2039 31.2771C18.5464 29.033 18.6045 26.6397 19.3701 24.4302C20.1358 22.2206 21.571 20.3046 23.4761 18.9485C25.3812 17.5924 27.6615 16.8637 30 16.8637C32.3385 16.8637 34.6188 17.5924 36.5239 18.9485C38.429 20.3046 39.8642 22.2206 40.6299 24.4302C41.3955 26.6397 41.4536 29.033 40.7961 31.2771C40.1385 33.5212 38.798 35.5046 36.9609 36.9516C40.3809 38.3152 43.3213 40.6596 45.4125 43.6898C48.7738 39.9225 50.6294 35.0489 50.625 30C50.6251 28.8472 50.5294 27.6964 50.3391 26.5594C50.2959 26.3155 50.3015 26.0654 50.3556 25.8237C50.4096 25.582 50.5111 25.3534 50.654 25.1511C50.7969 24.9488 50.9784 24.7768 51.1882 24.645C51.3979 24.5133 51.6317 24.4244 51.876 24.3836C52.1203 24.3427 52.3703 24.3506 52.6115 24.4069C52.8527 24.4632 53.0804 24.5667 53.2814 24.7115C53.4823 24.8563 53.6526 25.0394 53.7824 25.2504C53.9122 25.4614 53.9989 25.696 54.0375 25.9406ZM30 35.625C31.4834 35.625 32.9334 35.1851 34.1668 34.361C35.4001 33.5369 36.3614 32.3656 36.9291 30.9951C37.4968 29.6247 37.6453 28.1167 37.3559 26.6618C37.0665 25.207 36.3522 23.8706 35.3033 22.8217C34.2544 21.7728 32.918 21.0585 31.4632 20.7691C30.0083 20.4797 28.5003 20.6282 27.1299 21.1959C25.7594 21.7636 24.5881 22.7249 23.764 23.9582C22.9399 25.1916 22.5 26.6416 22.5 28.125C22.5 30.1141 23.2902 32.0218 24.6967 33.4283C26.1032 34.8348 28.0109 35.625 30 35.625ZM30 50.625C34.5782 50.6296 39.0265 49.1034 42.6375 46.2891C41.2811 44.1677 39.4125 42.4219 37.2039 41.2126C34.9954 40.0034 32.5179 39.3695 30 39.3695C27.4821 39.3695 25.0046 40.0034 22.7961 41.2126C20.5875 42.4219 18.7189 44.1677 17.3625 46.2891C20.9735 49.1034 25.4218 50.6296 30 50.625Z" fill="#EF4444"/>
</svg>
