<svg width="60" height="60" viewBox="0 0 60 60" fill="none" xmlns="http://www.w3.org/2000/svg">
<path d="M31.875 18.75V28.9383L40.3406 34.0172C40.767 34.2733 41.0743 34.6883 41.1947 35.1709C41.3151 35.6535 41.2389 36.1642 40.9828 36.5906C40.7267 37.0171 40.3117 37.3243 39.8291 37.4447C39.3465 37.5651 38.8358 37.4889 38.4094 37.2328L29.0344 31.6078C28.7569 31.4411 28.5273 31.2054 28.368 30.9237C28.2086 30.6419 28.1249 30.3237 28.125 30V18.75C28.125 18.2527 28.3225 17.7758 28.6742 17.4242C29.0258 17.0726 29.5027 16.875 30 16.875C30.4973 16.875 30.9742 17.0726 31.3258 17.4242C31.6775 17.7758 31.875 18.2527 31.875 18.75ZM30 7.50001C27.0422 7.49264 24.1123 8.07196 21.3798 9.20445C18.6474 10.3369 16.1667 12.0001 14.0813 14.0977C12.3773 15.8227 10.8633 17.482 9.375 19.2188V15C9.375 14.5027 9.17746 14.0258 8.82582 13.6742C8.47419 13.3226 7.99728 13.125 7.5 13.125C7.00272 13.125 6.52581 13.3226 6.17417 13.6742C5.82254 14.0258 5.625 14.5027 5.625 15V24.375C5.625 24.8723 5.82254 25.3492 6.17417 25.7008C6.52581 26.0525 7.00272 26.25 7.5 26.25H16.875C17.3723 26.25 17.8492 26.0525 18.2008 25.7008C18.5525 25.3492 18.75 24.8723 18.75 24.375C18.75 23.8777 18.5525 23.4008 18.2008 23.0492C17.8492 22.6976 17.3723 22.5 16.875 22.5H11.4844C13.1602 20.5266 14.8289 18.668 16.732 16.7414C19.3379 14.1355 22.654 12.3553 26.2659 11.6233C29.8777 10.8913 33.6252 11.2399 37.0401 12.6255C40.455 14.0112 43.3858 16.3724 45.4664 19.4142C47.547 22.4561 48.685 26.0436 48.7383 29.7285C48.7916 33.4134 47.7578 37.0323 45.7661 40.133C43.7744 43.2338 40.9131 45.6788 37.5397 47.1627C34.1664 48.6465 30.4305 49.1034 26.799 48.4761C23.1675 47.8489 19.8013 46.1654 17.1211 43.6359C16.942 43.4667 16.7312 43.3343 16.501 43.2465C16.2707 43.1586 16.0254 43.117 15.779 43.124C15.5326 43.1309 15.2901 43.1864 15.0651 43.2871C14.8402 43.3878 14.6373 43.5318 14.468 43.7109C14.2987 43.8901 14.1663 44.1008 14.0785 44.3311C13.9907 44.5613 13.949 44.8067 13.956 45.053C13.963 45.2994 14.0184 45.542 14.1191 45.7669C14.2198 45.9919 14.3638 46.1948 14.543 46.3641C17.2136 48.8842 20.4604 50.7125 24 51.6893C27.5397 52.6661 31.2646 52.7617 34.8497 51.9679C38.4348 51.174 41.7712 49.5148 44.5676 47.135C47.364 44.7552 49.5354 41.7272 50.8925 38.3152C52.2495 34.9032 52.7508 31.2109 52.3527 27.5606C51.9546 23.9103 50.6692 20.4129 48.6086 17.3736C46.548 14.3343 43.7748 11.8456 40.5312 10.1245C37.2875 8.40344 33.672 7.5024 30 7.50001Z" fill="#EF4444"/>
</svg>
