<svg width="46" height="44" viewBox="0 0 46 44" fill="none" xmlns="http://www.w3.org/2000/svg">
<path d="M45.5 23C45.5 23.4973 45.3025 23.9742 44.9508 24.3258C44.5992 24.6775 44.1223 24.875 43.625 24.875H17.375C16.8777 24.875 16.4008 24.6775 16.0492 24.3258C15.6975 23.9742 15.5 23.4973 15.5 23C15.5 22.5027 15.6975 22.0258 16.0492 21.6742C16.4008 21.3225 16.8777 21.125 17.375 21.125H43.625C44.1223 21.125 44.5992 21.3225 44.9508 21.6742C45.3025 22.0258 45.5 22.5027 45.5 23ZM17.375 9.875H43.625C44.1223 9.875 44.5992 9.67745 44.9508 9.32582C45.3025 8.97419 45.5 8.49728 45.5 8C45.5 7.50272 45.3025 7.02581 44.9508 6.67417C44.5992 6.32254 44.1223 6.125 43.625 6.125H17.375C16.8777 6.125 16.4008 6.32254 16.0492 6.67417C15.6975 7.02581 15.5 7.50272 15.5 8C15.5 8.49728 15.6975 8.97419 16.0492 9.32582C16.4008 9.67745 16.8777 9.875 17.375 9.875ZM43.625 36.125H17.375C16.8777 36.125 16.4008 36.3225 16.0492 36.6742C15.6975 37.0258 15.5 37.5027 15.5 38C15.5 38.4973 15.6975 38.9742 16.0492 39.3258C16.4008 39.6775 16.8777 39.875 17.375 39.875H43.625C44.1223 39.875 44.5992 39.6775 44.9508 39.3258C45.3025 38.9742 45.5 38.4973 45.5 38C45.5 37.5027 45.3025 37.0258 44.9508 36.6742C44.5992 36.3225 44.1223 36.125 43.625 36.125ZM3.21406 5.92812L4.25 5.40781V17.375C4.25 17.8723 4.44754 18.3492 4.79918 18.7008C5.15081 19.0525 5.62772 19.25 6.125 19.25C6.62228 19.25 7.09919 19.0525 7.45083 18.7008C7.80246 18.3492 8 17.8723 8 17.375V2.375C8.00023 2.05523 7.91867 1.74071 7.76308 1.46135C7.60749 1.18198 7.38304 0.947049 7.11106 0.778882C6.83908 0.610715 6.52861 0.514901 6.20916 0.500547C5.88972 0.486194 5.5719 0.553778 5.28594 0.696875L1.53594 2.57188C1.09087 2.79441 0.752435 3.18463 0.59508 3.65669C0.517166 3.89044 0.486053 4.13724 0.503519 4.383C0.520986 4.62877 0.586688 4.86869 0.696875 5.08906C0.807063 5.30944 0.959577 5.50595 1.14571 5.66738C1.33184 5.82882 1.54795 5.95201 1.78169 6.02992C2.25376 6.18727 2.769 6.15066 3.21406 5.92812ZM11.6961 29.7312C11.5924 28.9886 11.3396 28.2747 10.953 27.6323C10.5663 26.9898 10.0538 26.4322 9.44609 25.993C8.229 25.1092 6.71729 24.7303 5.22725 24.9356C3.73721 25.1409 2.38429 25.9145 1.45156 27.0945C1.09507 27.5523 0.812723 28.0632 0.614845 28.6086C0.511515 28.8433 0.457446 29.0968 0.455981 29.3533C0.454517 29.6097 0.505688 29.8638 0.60633 30.0997C0.706972 30.3356 0.854946 30.5484 1.0411 30.7248C1.22725 30.9013 1.44762 31.0376 1.68858 31.1255C1.92954 31.2134 2.18597 31.2509 2.442 31.2357C2.69803 31.2205 2.94823 31.1529 3.17711 31.0372C3.40599 30.9214 3.60869 30.76 3.77267 30.5628C3.93665 30.3655 4.05843 30.1368 4.13047 29.8906C4.19609 29.7108 4.28941 29.5424 4.40703 29.3914C4.73779 28.9793 5.21471 28.7106 5.73856 28.6412C6.26242 28.5717 6.79286 28.707 7.21953 29.0187C7.42477 29.1639 7.59835 29.3493 7.7297 29.5637C7.86105 29.778 7.94743 30.0168 7.98359 30.2656C8.01667 30.5046 8.00113 30.7477 7.93789 30.9805C7.87466 31.2133 7.76505 31.4309 7.61563 31.6203C7.6088 31.6285 7.60253 31.6371 7.59687 31.6461L0.872657 40.6273C0.664285 40.9061 0.537599 41.2373 0.506779 41.584C0.475959 41.9306 0.54222 42.279 0.698148 42.5901C0.854075 42.9012 1.09351 43.1628 1.38966 43.3456C1.68581 43.5284 2.02699 43.6251 2.375 43.625H9.875C10.3723 43.625 10.8492 43.4275 11.2008 43.0758C11.5525 42.7242 11.75 42.2473 11.75 41.75C11.75 41.2527 11.5525 40.7758 11.2008 40.4242C10.8492 40.0725 10.3723 39.875 9.875 39.875H6.125L10.5969 33.8914C11.0503 33.3074 11.3813 32.6381 11.5701 31.9233C11.759 31.2085 11.8018 30.463 11.6961 29.7312Z" fill="#EF4444"/>
</svg>
