<svg width="26" height="23" viewBox="0 0 26 23" fill="none" xmlns="http://www.w3.org/2000/svg">
<path d="M18 13C18 13.2652 17.8946 13.5196 17.7071 13.7071C17.5196 13.8946 17.2652 14 17 14H14V17C14 17.2652 13.8946 17.5196 13.7071 17.7071C13.5196 17.8946 13.2652 18 13 18C12.7348 18 12.4804 17.8946 12.2929 17.7071C12.1054 17.5196 12 17.2652 12 17V14H9C8.73478 14 8.48043 13.8946 8.29289 13.7071C8.10536 13.5196 8 13.2652 8 13C8 12.7348 8.10536 12.4804 8.29289 12.2929C8.48043 12.1054 8.73478 12 9 12H12V9C12 8.73478 12.1054 8.48043 12.2929 8.29289C12.4804 8.10536 12.7348 8 13 8C13.2652 8 13.5196 8.10536 13.7071 8.29289C13.8946 8.48043 14 8.73478 14 9V12H17C17.2652 12 17.5196 12.1054 17.7071 12.2929C17.8946 12.4804 18 12.7348 18 13ZM26 6V20C26 20.7956 25.6839 21.5587 25.1213 22.1213C24.5587 22.6839 23.7956 23 23 23H3C2.20435 23 1.44129 22.6839 0.87868 22.1213C0.316071 21.5587 0 20.7956 0 20V6C0 5.20435 0.316071 4.44129 0.87868 3.87868C1.44129 3.31607 2.20435 3 3 3H6.465L7.875 0.89C8.05732 0.61673 8.30415 0.392578 8.59367 0.237352C8.88319 0.082127 9.20649 0.00060823 9.535 0H16.465C16.7935 0.00060823 17.1168 0.082127 17.4063 0.237352C17.6959 0.392578 17.9427 0.61673 18.125 0.89L19.535 3H23C23.7956 3 24.5587 3.31607 25.1213 3.87868C25.6839 4.44129 26 5.20435 26 6ZM24 6C24 5.73478 23.8946 5.48043 23.7071 5.29289C23.5196 5.10536 23.2652 5 23 5H19C18.8353 5.00011 18.6732 4.95954 18.5279 4.88191C18.3827 4.80428 18.2589 4.69199 18.1675 4.555L16.465 2H9.535L7.8325 4.555C7.7411 4.69199 7.61729 4.80428 7.47206 4.88191C7.32683 4.95954 7.16468 5.00011 7 5H3C2.73478 5 2.48043 5.10536 2.29289 5.29289C2.10536 5.48043 2 5.73478 2 6V20C2 20.2652 2.10536 20.5196 2.29289 20.7071C2.48043 20.8946 2.73478 21 3 21H23C23.2652 21 23.5196 20.8946 23.7071 20.7071C23.8946 20.5196 24 20.2652 24 20V6Z" fill="#EF4444"/>
</svg>
