<svg width="18" height="18" viewBox="0 0 18 18" fill="none" xmlns="http://www.w3.org/2000/svg">
<path d="M16.9422 16.0579L13.0305 12.1469C14.1642 10.7858 14.7296 9.03989 14.6089 7.2725C14.4883 5.50512 13.6909 3.85229 12.3826 2.65785C11.0744 1.46341 9.35597 0.819317 7.58492 0.859567C5.81388 0.899817 4.12653 1.62131 2.87389 2.87395C1.62125 4.12659 0.899756 5.81394 0.859506 7.58498C0.819256 9.35603 1.46334 11.0744 2.65779 12.3827C3.85223 13.6909 5.50506 14.4883 7.27244 14.609C9.03983 14.7297 10.7857 14.1643 12.1469 13.0305L16.0578 16.9422C16.1159 17.0003 16.1848 17.0464 16.2607 17.0778C16.3366 17.1092 16.4179 17.1254 16.5 17.1254C16.5821 17.1254 16.6634 17.1092 16.7393 17.0778C16.8152 17.0464 16.8841 17.0003 16.9422 16.9422C17.0003 16.8842 17.0463 16.8152 17.0777 16.7394C17.1092 16.6635 17.1253 16.5822 17.1253 16.5001C17.1253 16.4179 17.1092 16.3366 17.0777 16.2607C17.0463 16.1849 17.0003 16.1159 16.9422 16.0579ZM2.125 7.75006C2.125 6.63754 2.4549 5.55 3.07298 4.62497C3.69106 3.69995 4.56957 2.97898 5.5974 2.55323C6.62524 2.12749 7.75624 2.0161 8.84738 2.23314C9.93852 2.45018 10.9408 2.98591 11.7275 3.77258C12.5141 4.55925 13.0499 5.56153 13.2669 6.65267C13.484 7.74382 13.3726 8.87482 12.9468 9.90265C12.5211 10.9305 11.8001 11.809 10.8751 12.4271C9.95005 13.0452 8.86252 13.3751 7.75 13.3751C6.25866 13.3734 4.82888 12.7802 3.77435 11.7257C2.71981 10.6712 2.12665 9.24139 2.125 7.75006Z" fill="#A3A3A3"/>
</svg>
